<svg xmlns="http://www.w3.org/2000/svg" width="140" height="14"><defs><clipPath id="a"><path d="M0 0h140v14H0z"/></clipPath></defs><g clip-path="url(#a)"><g data-name="Group 1523" transform="translate(-92.879 -89.351)"><rect data-name="Rectangle 149" width="6" height="6" rx="3" transform="translate(226 97)" fill="#3f3bec"/><path data-name="Path 332" d="M96.605 90.317h-3.726v8.165c0 2.892 2.241 4.738 5.59 4.738s5.59-1.846 5.59-4.737v-8.165h-3.727v7.752c0 1.336-.659 2.065-1.863 2.065s-1.864-.73-1.864-2.066zM105.658 103h3.6V90.317h-3.6zm5.871-11.83v2.13h-1.283v2.61h1.283v4.386c0 1.913 1.081 2.704 3.824 2.704a7.2 7.2 0 001.485-.132v-2.5a3.206 3.206 0 01-.615.044c-.738 0-1.09-.316-1.09-.923v-3.582h1.705V93.3h-1.705v-2.13zm6.495 11.83h3.6v-9.7h-3.6zm1.8-10.239a1.717 1.717 0 001.793-1.705 1.717 1.717 0 00-1.793-1.705 1.717 1.717 0 00-1.793 1.705 1.717 1.717 0 001.795 1.705zM122.981 103h3.6v-5.634c0-.844.439-1.371 1.169-1.371.773 0 1.169.466 1.169 1.389V103h3.419v-5.634c0-.853.431-1.371 1.16-1.371.782 0 1.178.457 1.178 1.38V103h3.6v-6.557a3.114 3.114 0 00-3.19-3.34 2.932 2.932 0 00-2.979 2.136h-.07a2.492 2.492 0 00-2.7-2.136 2.835 2.835 0 00-2.777 2.153h-.06V93.3h-3.519zm20.874-2.268c-.633 0-1.063-.308-1.063-.835 0-.475.387-.8 1.072-.853l1.529-.105v.633c.001.712-.738 1.16-1.538 1.16zm-1.344 2.409a3.168 3.168 0 002.812-1.441h.07v1.3h3.516v-6.636c0-1.969-1.8-3.313-4.491-3.313-2.83 0-4.588 1.31-4.676 3.384h3.217a1.141 1.141 0 011.266-.9c.677 0 1.169.352 1.169 1v.475l-2.127.132c-2.593.158-4.025 1.169-4.025 3.032a3.078 3.078 0 003.269 2.967zm8.622-11.971v2.13h-1.283v2.61h1.283v4.386c0 1.913 1.081 2.704 3.823 2.704a7.2 7.2 0 001.485-.132v-2.5a3.206 3.206 0 01-.615.044c-.738 0-1.09-.316-1.09-.923v-3.582h1.705V93.3h-1.705v-2.13zm11.285 4.359a1.455 1.455 0 011.512 1.433h-3.024a1.5 1.5 0 011.512-1.433zm1.617 4.324a1.53 1.53 0 01-1.529.923 1.583 1.583 0 01-1.652-1.635v-.229h6.434v-.976a4.607 4.607 0 00-4.948-4.887c-3.05 0-4.957 1.978-4.957 5.15 0 3.155 1.89 5.045 5.071 5.045 2.663 0 4.491-1.3 4.79-3.393zM183.934 103V90.317h-3.727v4.816h-4.465v-4.816h-3.726V103h3.727v-4.9h4.465v4.9zm8.341 0v-9.721h3.34v-2.962h-10.407v2.962h3.34V103zm18.967 0V90.317h-4.307l-2.83 7.4h-.07l-2.839-7.4h-4.307V103h3.252v-7.348h.07l2.856 7.2h2l2.856-7.2h.07V103zm10.458-2.962h-4.975v-9.721H213V103h8.7z" fill="#242841"/></g></g></svg>