<svg width="64" height="64" viewBox="0 0 64 64" fill="none" xmlns="http://www.w3.org/2000/svg">
<path d="M40.7722 18.7998C40.2416 18.2695 39.5223 17.9716 38.7722 17.9716C38.0221 17.9716 37.3027 18.2695 36.7722 18.7998L24.5832 30.9858C24.0529 31.5163 23.755 32.2357 23.755 32.9858C23.755 33.7359 24.0529 34.4553 24.5832 34.9858L36.7722 47.1718C37.3027 47.7021 38.0221 48 38.7722 48C39.5223 48 40.2416 47.7021 40.7722 47.1718C41.3024 46.6413 41.6003 45.9219 41.6003 45.1718C41.6003 44.4217 41.3024 43.7023 40.7722 43.1718L30.5832 32.9858L40.7722 22.7998C41.3024 22.2693 41.6003 21.5499 41.6003 20.7998C41.6003 20.0497 41.3024 19.3303 40.7722 18.7998Z" fill="#242841"/>
</svg>
