<svg width="64" height="64" viewBox="0 0 64 64" fill="none" xmlns="http://www.w3.org/2000/svg">
<path d="M23.2278 45.2002C23.7584 45.7305 24.4777 46.0284 25.2278 46.0284C25.9779 46.0284 26.6973 45.7305 27.2278 45.2002L39.4168 33.0142C39.9471 32.4837 40.245 31.7643 40.245 31.0142C40.245 30.2641 39.9471 29.5447 39.4168 29.0142L27.2278 16.8282C26.6973 16.2979 25.9779 16 25.2278 16C24.4777 16 23.7584 16.2979 23.2278 16.8282C22.6976 17.3587 22.3997 18.0781 22.3997 18.8282C22.3997 19.5783 22.6976 20.2977 23.2278 20.8282L33.4168 31.0142L23.2278 41.2002C22.6976 41.7307 22.3997 42.4501 22.3997 43.2002C22.3997 43.9503 22.6976 44.6697 23.2278 45.2002Z" fill="#242841"/>
</svg>
