<svg width="64" height="64" viewBox="0 0 64 64" fill="none" xmlns="http://www.w3.org/2000/svg">
<path d="M18.8001 23.2278C18.2698 23.7584 17.9719 24.4777 17.9719 25.2278C17.9719 25.9779 18.2698 26.6973 18.8001 27.2278L30.9861 39.4168C31.5166 39.9471 32.236 40.245 32.9861 40.245C33.7362 40.245 34.4555 39.9471 34.9861 39.4168L47.1721 27.2278C47.7023 26.6973 48.0002 25.9779 48.0002 25.2278C48.0002 24.4777 47.7023 23.7584 47.1721 23.2278C46.6415 22.6976 45.9222 22.3997 45.1721 22.3997C44.422 22.3997 43.7026 22.6976 43.1721 23.2278L32.9861 33.4168L22.8001 23.2278C22.2695 22.6976 21.5502 22.3997 20.8001 22.3997C20.05 22.3997 19.3306 22.6976 18.8001 23.2278Z" fill="#242841"/>
</svg>
