<svg width="64" height="64" viewBox="0 0 64 64" fill="none" xmlns="http://www.w3.org/2000/svg">
<path d="M45.1999 40.7719C45.7302 40.2414 46.0281 39.522 46.0281 38.7719C46.0281 38.0218 45.7302 37.3024 45.1999 36.7719L33.0139 24.5829C32.4834 24.0526 31.764 23.7547 31.0139 23.7547C30.2638 23.7547 29.5445 24.0526 29.0139 24.5829L16.8279 36.7719C16.2977 37.3024 15.9998 38.0218 15.9998 38.7719C15.9998 39.522 16.2977 40.2414 16.8279 40.7719C17.3585 41.3022 18.0778 41.6001 18.8279 41.6001C19.578 41.6001 20.2974 41.3022 20.8279 40.7719L31.0139 30.5829L41.1999 40.7719C41.7305 41.3022 42.4498 41.6001 43.1999 41.6001C43.95 41.6001 44.6694 41.3022 45.1999 40.7719Z" fill="#242841"/>
</svg>
