<svg width="64" height="64" viewBox="0 0 64 64" fill="none" xmlns="http://www.w3.org/2000/svg">
<path d="M18.667 8.33289C17.9597 8.33316 17.2815 8.61423 16.7814 9.11433C16.2813 9.61443 16.0003 10.2926 16 10.9999V13.6669H13.333C11.9199 13.6711 10.5659 14.2343 9.56666 15.2336C8.56744 16.2328 8.00422 17.5868 8 18.9999V50.9999C8.00422 52.413 8.56744 53.767 9.56666 54.7662C10.5659 55.7654 11.9199 56.3287 13.333 56.3329H50.667C52.0801 56.3287 53.4341 55.7654 54.4333 54.7662C55.4326 53.767 55.9958 52.413 56 50.9999V18.9999C55.9958 17.5868 55.4326 16.2328 54.4333 15.2336C53.4341 14.2343 52.0801 13.6711 50.667 13.6669H48V10.9999C48.0069 10.6454 47.943 10.2931 47.812 9.96352C47.6811 9.634 47.4858 9.33389 47.2375 9.08074C46.9892 8.8276 46.693 8.62651 46.366 8.48923C46.0391 8.35196 45.6881 8.28125 45.3335 8.28125C44.9789 8.28125 44.6279 8.35196 44.301 8.48923C43.974 8.62651 43.6778 8.8276 43.4295 9.08074C43.1812 9.33389 42.9859 9.634 42.8549 9.96352C42.724 10.2931 42.6601 10.6454 42.667 10.9999V13.6669H21.333V10.9999C21.3327 10.2928 21.0518 9.61476 20.5519 9.11468C20.052 8.61461 19.3741 8.33342 18.667 8.33289V8.33289ZM13.333 21.6659H50.667V48.3329C50.6667 49.0401 50.3857 49.7184 49.8856 50.2185C49.3855 50.7186 48.7073 50.9996 48 50.9999H16C15.2927 50.9996 14.6145 50.7186 14.1144 50.2185C13.6143 49.7184 13.3333 49.0401 13.333 48.3329V21.6659Z" fill="#242841"/>
<path d="M25 27.333H17V35.333H25V27.333Z" fill="#707C93"/>
<path d="M25 38.333H17V46.333H25V38.333Z" fill="#707C93"/>
<path d="M36 27.333H28V35.333H36V27.333Z" fill="#707C93"/>
<path d="M36 38.333H28V46.333H36V38.333Z" fill="#707C93"/>
<path d="M47 27.333H39V35.333H47V27.333Z" fill="#707C93"/>
<path d="M47 38.333H39V46.333H47V38.333Z" fill="#707C93"/>
</svg>
