<svg width="64" height="64" viewBox="0 0 64 64" fill="none" xmlns="http://www.w3.org/2000/svg">
<path d="M53.2811 15.9751C52.5885 15.9958 51.9311 16.2852 51.4481 16.7821L24.0001 44.2301L15.2191 35.4491C14.7192 34.9485 14.0409 34.667 13.3334 34.6665C12.6259 34.6661 11.9472 34.9467 11.4466 35.4466C10.946 35.9465 10.6645 36.6248 10.6641 37.3323C10.6636 38.0398 10.9442 38.7185 11.4441 39.2191L22.1151 49.8861C22.6153 50.386 23.2935 50.6669 24.0006 50.6669C24.7078 50.6669 25.386 50.386 25.8861 49.8861L55.2191 20.5551C55.6043 20.1805 55.8675 19.6984 55.974 19.1717C56.0805 18.6451 56.0255 18.0986 55.8161 17.6037C55.6067 17.1089 55.2528 16.6888 54.8006 16.3986C54.3485 16.1083 53.8192 15.9614 53.2821 15.9771L53.2811 15.9751Z" fill="#242841"/>
</svg>
