<svg width="64" height="64" viewBox="0 0 64 64" fill="none" xmlns="http://www.w3.org/2000/svg">
<path d="M17.0499 5.00994C16.7022 4.97938 16.3518 5.0179 16.0191 5.12327C15.6863 5.22865 15.3776 5.3988 15.1109 5.62394L6.94689 12.4899C6.42 12.9484 6.09433 13.5956 6.04004 14.2919C5.98576 14.9882 6.20722 15.678 6.65669 16.2126C7.10617 16.7472 7.74768 17.0838 8.44299 17.1499C9.1383 17.216 9.83174 17.0063 10.3739 16.5659L18.5369 9.69994C18.9392 9.36049 19.2319 8.90947 19.3781 8.40382C19.5243 7.89816 19.5174 7.36052 19.3583 6.85877C19.1992 6.35701 18.8951 5.91363 18.4842 5.58459C18.0734 5.25554 17.5743 5.05558 17.0499 5.00994V5.00994ZM47.6129 5.00994C47.0884 5.05554 46.5892 5.25562 46.1785 5.5849C45.7677 5.91418 45.4638 6.35787 45.3051 6.85986C45.1465 7.36186 45.1403 7.89961 45.2873 8.40514C45.4343 8.91066 45.7278 9.36126 46.1309 9.69994L54.2909 16.5639C54.5562 16.8042 54.8673 16.9884 55.2055 17.1057C55.5436 17.223 55.902 17.271 56.2591 17.2467C56.6162 17.2223 56.9647 17.1263 57.2839 16.9642C57.603 16.8022 57.8862 16.5774 58.1165 16.3035C58.3469 16.0295 58.5196 15.7119 58.6244 15.3696C58.7292 15.0274 58.764 14.6675 58.7266 14.3116C58.6892 13.9556 58.5804 13.6108 58.4068 13.2978C58.2331 12.9848 57.9981 12.7101 57.7159 12.4899L49.5579 5.62394C49.29 5.39872 48.9803 5.22855 48.6466 5.12319C48.3128 5.01783 47.9615 4.97935 47.6129 5.00994V5.00994ZM32.3319 10.5629C27.593 10.5627 22.9605 11.9678 19.0202 14.6004C15.0798 17.2331 12.0087 20.9751 10.195 25.3532C8.3814 29.7313 7.90677 34.5488 8.83116 39.1967C9.75555 43.8445 12.0374 48.1139 15.3883 51.4649C18.7391 54.8158 23.0083 57.0979 27.6562 58.0225C32.304 58.9471 37.1216 58.4726 41.4998 56.6592C45.8779 54.8457 49.62 51.7747 52.2528 47.8345C54.8856 43.8943 56.2909 39.2618 56.2909 34.5229C56.2912 31.3765 55.6716 28.2608 54.4677 25.3538C53.2637 22.4468 51.499 19.8054 49.2741 17.5804C47.0493 15.3555 44.408 13.5906 41.501 12.3865C38.594 11.1825 35.4784 10.5628 32.3319 10.5629V10.5629ZM32.3319 21.2119C33.0373 21.213 33.7135 21.4939 34.212 21.993C34.7105 22.4921 34.9906 23.1685 34.9909 23.8739V35.5419L41.7909 38.9419C42.1107 39.094 42.3969 39.3084 42.6329 39.5724C42.8688 39.8365 43.0498 40.1449 43.1651 40.4797C43.2804 40.8145 43.3277 41.169 43.3044 41.5223C43.2811 41.8757 43.1875 42.2208 43.0291 42.5376C42.8708 42.8543 42.6509 43.1363 42.3823 43.367C42.1136 43.5977 41.8017 43.7726 41.4647 43.8813C41.1276 43.99 40.7723 44.0304 40.4195 44.0001C40.0667 43.9698 39.7235 43.8695 39.4099 43.7049L31.1409 39.5659C30.6997 39.345 30.3286 39.0058 30.0688 38.5863C29.8091 38.1668 29.671 37.6834 29.6699 37.1899V23.8739C29.6702 23.168 29.9507 22.4911 30.4499 21.9919C30.949 21.4928 31.626 21.2122 32.3319 21.2119Z" fill="#242841"/>
</svg>
