<svg width="24" height="24" viewBox="0 0 24 24" fill="none" xmlns="http://www.w3.org/2000/svg">
<path d="M21.7999 10.041H20.9999V9.99997H11.9999V14H17.6519C17.2245 15.2145 16.4181 16.2595 15.3516 16.9809C14.2851 17.7022 13.0151 18.0618 11.7287 18.0065C10.4424 17.9513 9.20785 17.4841 8.20719 16.6739C7.20653 15.8636 6.49273 14.7533 6.17105 13.5066C5.84937 12.2599 5.93684 10.9428 6.42057 9.74962C6.90429 8.55641 7.75866 7.55023 8.85767 6.87947C9.95669 6.20871 11.2422 5.90888 12.5245 6.0242C13.8069 6.13953 15.0182 6.66389 15.9799 7.51997L18.8079 4.69197C17.0643 3.07642 14.8012 2.13649 12.4261 2.04143C10.0509 1.94637 7.71992 2.70243 5.85276 4.17346C3.9856 5.64449 2.70499 7.73383 2.24154 10.0652C1.77809 12.3966 2.16225 14.8169 3.32485 16.8902C4.48745 18.9635 6.35209 20.5536 8.58299 21.3742C10.8139 22.1947 13.2645 22.1918 15.4934 21.3659C17.7223 20.5401 19.5832 18.9456 20.7409 16.8695C21.8985 14.7934 22.2769 12.3723 21.8079 10.042L21.7999 10.041Z" fill="#FFC107"/>
<path d="M3.14795 7.34599L6.43495 9.75599C6.79296 8.86323 7.3608 8.06988 8.09039 7.44308C8.81999 6.81629 9.68987 6.37451 10.6264 6.15515C11.5629 5.93579 12.5385 5.94529 13.4705 6.18287C14.4026 6.42044 15.2637 6.87909 15.9809 7.51999L18.8089 4.69199C17.6865 3.64111 16.3364 2.86382 14.864 2.42075C13.3916 1.97768 11.8367 1.88082 10.3207 2.13773C8.80471 2.39464 7.36857 2.99837 6.12436 3.90181C4.88015 4.80525 3.86152 5.98397 3.14795 7.34599V7.34599Z" fill="#FF3D00"/>
<path d="M12.0021 22C14.4829 21.9988 16.8739 21.0716 18.7071 19.4L15.6071 16.781C14.8578 17.3488 13.9854 17.732 13.0604 17.8997C12.1354 18.0674 11.184 18.0148 10.2831 17.7462C9.38223 17.4776 8.55733 17.0006 7.87522 16.3537C7.19312 15.7068 6.67301 14.9084 6.35705 14.023L3.10205 16.539C3.93769 18.1815 5.21126 19.5608 6.78195 20.5246C8.35264 21.4883 10.1593 21.999 12.0021 22Z" fill="#4CAF50"/>
<path d="M21.8 10.041H21V10H12V14H17.652C17.2567 15.108 16.5459 16.0761 15.607 16.785V16.785L18.707 19.404C19.7582 18.4811 20.597 17.3413 21.1654 16.0631C21.7339 14.7849 22.0186 13.3988 22 12C21.9981 11.342 21.9311 10.6858 21.8 10.041Z" fill="#1976D2"/>
</svg>
