<svg width="24" height="24" viewBox="0 0 24 24" fill="none" xmlns="http://www.w3.org/2000/svg">
<path d="M16.889 23H7.111C5.49172 22.9953 3.94012 22.3499 2.79512 21.2049C1.65011 20.0599 1.00475 18.5083 1 16.889V7.111C1.00475 5.49172 1.65011 3.94012 2.79512 2.79512C3.94012 1.65011 5.49172 1.00475 7.111 1H16.889C18.5083 1.00475 20.0599 1.65011 21.2049 2.79512C22.3499 3.94012 22.9953 5.49172 23 7.111V16.889C22.9953 18.5083 22.3499 20.0599 21.2049 21.2049C20.0599 22.3499 18.5083 22.9953 16.889 23V23Z" fill="#304FFE"/>
<path d="M1 7.11099V16.889C1.00475 18.5083 1.65011 20.0599 2.79512 21.2049C3.94013 22.3499 5.49172 22.9952 7.111 23H16.889C18.5083 22.9952 20.0599 22.3499 21.2049 21.2049C22.3499 20.0599 22.9953 18.5083 23 16.889V7.11099C23.0133 6.53112 22.9309 5.95302 22.756 5.39999C19.184 2.54093 14.7423 0.988477 10.167 0.999992C7.94066 0.992386 5.72932 1.36438 3.628 2.09999C2.81663 2.65971 2.15348 3.40827 1.69567 4.28121C1.23786 5.15415 0.999116 6.12529 1 7.11099V7.11099Z" fill="#304FFE" fill-opacity="0.29"/>
<path d="M10.167 2.22198C7.24442 2.23167 4.36159 2.90025 1.73304 4.17798C1.24816 5.0793 0.99619 6.08751 1.00004 7.11098V16.889C1.00479 18.5083 1.65015 20.0599 2.79516 21.2049C3.94017 22.3499 5.49177 22.9952 7.11104 23H16.889C18.5083 22.9952 20.0599 22.3499 21.2049 21.2049C22.3499 20.0599 22.9953 18.5083 23 16.889V7.23298C19.5094 4.00082 14.9243 2.21043 10.167 2.22198V2.22198Z" fill="#6200EA"/>
<path d="M23 8.94399C21.3436 7.20767 19.3524 5.8251 17.1467 4.87979C14.9411 3.93448 12.5667 3.44605 10.167 3.44399C6.98025 3.43921 3.85283 4.30578 1.123 5.94999C1.04864 6.33272 1.00749 6.72117 1 7.11099V16.889C1.00475 18.5083 1.65011 20.0599 2.79512 21.2049C3.94012 22.3499 5.49172 22.9952 7.111 23H16.889C18.5085 22.9952 20.0602 22.3497 21.2052 21.2045C22.3503 20.0593 22.9955 18.5074 23 16.888V8.94399Z" fill="#673AB7"/>
<path d="M23 10.778C21.4553 8.86325 19.5001 7.32 17.2789 6.26227C15.0576 5.20455 12.6272 4.65937 10.167 4.66701C6.89821 4.66104 3.70355 5.64066 1 7.47801V16.889C1.00475 18.5083 1.65011 20.0599 2.79512 21.2049C3.94012 22.3499 5.49172 22.9953 7.111 23H16.889C18.5083 22.9953 20.0599 22.3499 21.2049 21.2049C22.3499 20.0599 22.9953 18.5083 23 16.889V10.778Z" fill="#8E24AA"/>
<path d="M23 16.889V12.856C21.8592 11.0987 20.3695 9.59447 18.6233 8.43671C16.8771 7.27896 14.9116 6.49232 12.8488 6.12561C10.786 5.7589 8.66989 5.81994 6.63166 6.30493C4.59342 6.78992 2.67657 7.68852 1 8.945V16.889C1.00475 18.5083 1.65011 20.0599 2.79512 21.2049C3.94012 22.3499 5.49172 22.9952 7.111 23H16.889C18.5083 22.9952 20.0599 22.3499 21.2049 21.2049C22.3499 20.0599 22.9953 18.5083 23 16.889Z" fill="#C2185B"/>
<path d="M23 16.889V15.422C22.1067 13.4223 20.7578 11.6593 19.0612 10.2742C17.3647 8.8891 15.3675 7.92022 13.2295 7.44509C11.0914 6.96996 8.87187 7.00177 6.74833 7.53796C4.62479 8.07415 2.65619 9.09985 1 10.533V16.889C1.00475 18.5083 1.65011 20.0599 2.79512 21.2049C3.94012 22.3499 5.49172 22.9953 7.111 23H16.889C18.5083 22.9953 20.0599 22.3499 21.2049 21.2049C22.3499 20.0599 22.9953 18.5083 23 16.889V16.889Z" fill="#D81B60"/>
<path d="M22.756 18.6C22.288 16.317 21.2078 14.2043 19.6311 12.4881C18.0543 10.7719 16.0405 9.51702 13.8052 8.85771C11.5699 8.1984 9.19732 8.15955 6.94163 8.74532C4.68594 9.33109 2.63207 10.5194 1 12.183V16.889C1.00475 18.5083 1.65011 20.0599 2.79512 21.2049C3.94012 22.3499 5.49172 22.9953 7.111 23H16.889C18.2118 23.0019 19.4993 22.5738 20.5575 21.7801C21.6158 20.9865 22.3874 19.8704 22.756 18.6V18.6Z" fill="#F50057"/>
<path d="M21.717 20.556C21.6023 18.1913 20.7643 15.9188 19.3163 14.0457C17.8683 12.1727 15.8801 10.7894 13.6205 10.0828C11.3609 9.37628 8.93889 9.38055 6.68179 10.0951C4.42469 10.8096 2.44139 12.1998 1 14.078V16.889C1.00475 18.5083 1.65011 20.0599 2.79512 21.2049C3.94012 22.3499 5.49172 22.9952 7.111 23H16.889C17.8279 22.9933 18.7524 22.7692 19.5901 22.3451C20.4278 21.9211 21.1558 21.3087 21.717 20.556V20.556Z" fill="#FF1744"/>
<path d="M10.167 10.778C8.2833 10.7744 6.43431 11.2847 4.81903 12.2538C3.20376 13.2229 1.88337 14.6142 1 16.278V16.889C1.00475 18.5082 1.65011 20.0598 2.79512 21.2049C3.94012 22.3499 5.49172 22.9952 7.111 23H16.889C18.195 23.0166 19.4673 22.5854 20.494 21.778C20.494 21.595 20.555 21.35 20.555 21.167C20.5562 19.8024 20.2883 18.451 19.7667 17.1901C19.2451 15.9292 18.48 14.7835 17.5151 13.8186C16.5503 12.8536 15.4047 12.0884 14.1438 11.5667C12.8829 11.0449 11.5316 10.7769 10.167 10.778V10.778Z" fill="#FF5722"/>
<path d="M10.1672 12C8.13934 11.9927 6.167 12.6618 4.56214 13.9013C2.95729 15.1409 1.81154 16.8802 1.30615 18.844C1.71155 20.0608 2.49152 21.1181 3.53441 21.8646C4.5773 22.6111 5.82964 23.0086 7.11215 23H16.8902C17.6894 22.9973 18.4797 22.8309 19.2122 22.511C19.2831 22.0663 19.3238 21.6172 19.3342 21.167C19.3359 19.9627 19.0999 18.7699 18.6398 17.6569C18.1798 16.544 17.5046 15.5327 16.653 14.6811C15.8014 13.8296 14.7902 13.1544 13.6772 12.6943C12.5643 12.2342 11.3715 11.9983 10.1672 12V12Z" fill="#FF6F00"/>
<path d="M10.166 13.222C8.16446 13.2078 6.23325 13.9593 4.76774 15.3225C3.30223 16.6858 2.4133 18.5577 2.28296 20.555C2.84417 21.3077 3.57218 21.9201 4.40986 22.3441C5.24754 22.7682 6.17209 22.9923 7.11096 22.999H16.889C17.2382 22.9886 17.5858 22.9477 17.928 22.877C18.0524 22.3153 18.1138 21.7414 18.111 21.166C18.1129 20.1221 17.9088 19.0882 17.5102 18.1234C17.1116 17.1586 16.5264 16.2821 15.7883 15.544C15.0501 14.8059 14.1735 14.2209 13.2086 13.8224C12.2438 13.4239 11.2098 13.2199 10.166 13.222V13.222Z" fill="#FF9800"/>
<path d="M16.6441 23C16.8151 22.4043 16.8973 21.7867 16.8881 21.167C16.8881 19.3842 16.1799 17.6745 14.9193 16.4138C13.6587 15.1532 11.9489 14.445 10.1661 14.445C8.38333 14.445 6.67356 15.1532 5.41294 16.4138C4.15233 17.6745 3.44412 19.3842 3.44412 21.167C3.4341 21.3726 3.45465 21.5785 3.50512 21.778C4.55055 22.5509 5.8112 22.9781 7.11112 23H16.6441Z" fill="#FFC107"/>
<path d="M10.1671 15.667C9.444 15.6639 8.72743 15.8041 8.05877 16.0794C7.3901 16.3548 6.78258 16.7598 6.27125 17.2711C5.75992 17.7824 5.35491 18.39 5.07959 19.0586C4.80426 19.7273 4.66408 20.4439 4.66712 21.167C4.66376 21.6418 4.72533 22.1148 4.85012 22.573C5.56539 22.8728 6.33577 23.0186 7.11112 23.001H15.3611C15.5618 22.4102 15.6651 21.7908 15.6671 21.167C15.6702 20.4439 15.53 19.7273 15.2547 19.0586C14.9793 18.39 14.5743 17.7824 14.063 17.2711C13.5517 16.7598 12.9441 16.3548 12.2755 16.0794C11.6068 15.8041 10.8902 15.6639 10.1671 15.667Z" fill="#FFD54F"/>
<path d="M10.167 16.95C9.60421 16.9464 9.0463 17.0546 8.52565 17.2683C8.005 17.482 7.53197 17.797 7.13401 18.195C6.73604 18.593 6.42106 19.066 6.20734 19.5866C5.99362 20.1073 5.88542 20.6652 5.889 21.228C5.88678 21.8181 6.01196 22.4017 6.256 22.939C6.53836 22.9897 6.82531 23.0101 7.112 23H14.079C14.3232 22.4413 14.4482 21.8377 14.446 21.228C14.4496 20.6651 14.3414 20.1071 14.1276 19.5864C13.9138 19.0657 13.5987 18.5926 13.2006 18.1946C12.8026 17.7967 12.3294 17.4817 11.8087 17.268C11.2879 17.0544 10.7299 16.9463 10.167 16.95V16.95Z" fill="#FFE082"/>
<path d="M10.167 18.172C9.76456 18.168 9.36536 18.2443 8.99278 18.3964C8.6202 18.5486 8.28171 18.7735 7.99713 19.0581C7.71256 19.3427 7.48761 19.6812 7.33545 20.0538C7.18329 20.4263 7.10698 20.8255 7.11099 21.228C7.11711 21.8693 7.33155 22.4912 7.72199 23H12.611C13.0014 22.4912 13.2159 21.8693 13.222 21.228C13.226 20.8256 13.1497 20.4265 12.9976 20.054C12.8455 19.6815 12.6207 19.343 12.3362 19.0585C12.0517 18.7739 11.7134 18.5489 11.3409 18.3967C10.9684 18.2445 10.5693 18.1681 10.167 18.172Z" fill="#FFECB3"/>
<path d="M15.6661 20.555H8.33309C7.03734 20.5521 5.79549 20.036 4.87926 19.1198C3.96302 18.2036 3.447 16.9617 3.44409 15.666V8.33297C3.447 7.03722 3.96302 5.79537 4.87926 4.87913C5.79549 3.9629 7.03734 3.44688 8.33309 3.44397H15.6661C16.9618 3.44688 18.2037 3.9629 19.1199 4.87913C20.0362 5.79537 20.5522 7.03722 20.5551 8.33297V15.666C20.5522 16.9617 20.0362 18.2036 19.1199 19.1198C18.2037 20.036 16.9618 20.5521 15.6661 20.555ZM8.33309 4.66597C7.36135 4.66861 6.43017 5.0558 5.74305 5.74292C5.05592 6.43005 4.66873 7.36123 4.66609 8.33297V15.666C4.66873 16.6377 5.05592 17.5689 5.74305 18.256C6.43017 18.9431 7.36135 19.3303 8.33309 19.333H15.6661C16.6378 19.3303 17.569 18.9431 18.2561 18.256C18.9433 17.5689 19.3305 16.6377 19.3331 15.666V8.33297C19.3305 7.36123 18.9433 6.43005 18.2561 5.74292C17.569 5.0558 16.6378 4.66861 15.6661 4.66597H8.33309Z" fill="white"/>
<path d="M11.9999 16.278C11.1538 16.278 10.3267 16.0271 9.6232 15.557C8.91968 15.0869 8.37136 14.4188 8.04757 13.6371C7.72378 12.8554 7.63906 11.9952 7.80413 11.1654C7.96919 10.3355 8.37663 9.57327 8.97492 8.97498C9.57321 8.37669 10.3355 7.96925 11.1653 7.80419C11.9952 7.63912 12.8553 7.72384 13.637 8.04763C14.4187 8.37142 15.0869 8.91974 15.557 9.62326C16.027 10.3268 16.2779 11.1539 16.2779 12C16.2815 12.5628 16.1733 13.1207 15.9596 13.6413C15.7459 14.162 15.4309 14.635 15.0329 15.033C14.635 15.4309 14.1619 15.7459 13.6413 15.9596C13.1206 16.1734 12.5627 16.2816 11.9999 16.278V16.278ZM11.9999 8.94499C11.3955 8.94499 10.8047 9.12422 10.3021 9.46002C9.79955 9.79581 9.40785 10.2731 9.17655 10.8315C8.94525 11.3899 8.88473 12.0044 9.00265 12.5972C9.12056 13.19 9.41162 13.7345 9.83901 14.1619C10.2664 14.5893 10.8109 14.8803 11.4037 14.9983C11.9965 15.1162 12.611 15.0557 13.1694 14.8244C13.7278 14.5931 14.2051 14.2014 14.5409 13.6988C14.8767 13.1963 15.0559 12.6054 15.0559 12.001C15.0601 11.5985 14.9839 11.1992 14.8318 10.8265C14.6797 10.4538 14.4547 10.1152 14.1701 9.83048C13.8855 9.5458 13.547 9.32076 13.1744 9.16853C12.8017 9.01631 12.4024 8.93997 11.9999 8.94399V8.94499Z" fill="white"/>
<path d="M16.889 7.11097C16.889 7.23181 16.8532 7.34994 16.786 7.45042C16.7189 7.5509 16.6235 7.62921 16.5118 7.67546C16.4002 7.7217 16.2773 7.7338 16.1588 7.71023C16.0403 7.68665 15.9314 7.62846 15.846 7.54301C15.7605 7.45756 15.7023 7.34869 15.6787 7.23017C15.6552 7.11165 15.6673 6.98879 15.7135 6.87715C15.7597 6.7655 15.8381 6.67008 15.9385 6.60294C16.039 6.5358 16.1571 6.49997 16.278 6.49997C16.3595 6.495 16.4412 6.50741 16.5176 6.53636C16.5939 6.56531 16.6633 6.61014 16.7211 6.6679C16.7788 6.72566 16.8237 6.79502 16.8526 6.8714C16.8816 6.94778 16.894 7.02944 16.889 7.11097V7.11097Z" fill="white"/>
</svg>
