<svg width="64" height="64" viewBox="0 0 64 64" fill="none" xmlns="http://www.w3.org/2000/svg">
<path d="M53.3329 29.333H10.6669C10.3124 29.3262 9.96004 29.39 9.63052 29.521C9.30099 29.6519 9.00088 29.8472 8.74774 30.0955C8.49459 30.3438 8.2935 30.6401 8.15623 30.967C8.01895 31.2939 7.94824 31.6449 7.94824 31.9995C7.94824 32.3541 8.01895 32.7051 8.15623 33.0321C8.2935 33.359 8.49459 33.6553 8.74774 33.9035C9.00088 34.1518 9.30099 34.3471 9.63052 34.4781C9.96004 34.609 10.3124 34.6729 10.6669 34.666H53.3329C54.0311 34.6525 54.6962 34.3656 55.1853 33.867C55.6743 33.3684 55.9482 32.6979 55.9482 31.9995C55.9482 31.3011 55.6743 30.6306 55.1853 30.132C54.6962 29.6334 54.0311 29.3465 53.3329 29.333V29.333Z" fill="#242841"/>
</svg>
