<svg width="64" height="64" viewBox="0 0 64 64" fill="none" xmlns="http://www.w3.org/2000/svg">
<path d="M50.1081 7.00001C49.1175 6.99851 48.1364 7.19281 47.2212 7.57174C46.306 7.95066 45.4747 8.50674 44.7751 9.20801L41.6481 12.333L52.3161 23L55.4411 19.875C56.4959 18.8202 57.2142 17.4764 57.5052 16.0134C57.7962 14.5504 57.6468 13.0339 57.076 11.6558C56.5052 10.2777 55.5385 9.09979 54.2982 8.27106C53.0579 7.44234 51.5998 7.00001 50.1081 7.00001ZM37.6481 16.333L12.3161 41.667C12.3161 41.667 14.9961 41.68 16.3161 43C17.6361 44.32 17.6081 46.958 17.6081 46.958C17.6081 46.958 20.3271 47.01 21.6501 48.333C22.9731 49.656 22.9831 52.333 22.9831 52.333L48.3161 27L37.6481 16.333ZM8.76909 47L7.01909 56.344C6.98562 56.5202 6.99572 56.7018 7.0485 56.8732C7.10129 57.0445 7.19516 57.2004 7.32194 57.3272C7.44872 57.4539 7.60458 57.5478 7.77593 57.6006C7.94728 57.6534 8.12894 57.6635 8.30509 57.63L17.6481 55.88L8.76909 47Z" fill="#242841"/>
</svg>
