<svg width="64" height="64" viewBox="0 0 64 64" fill="none" xmlns="http://www.w3.org/2000/svg">
<path d="M53.3329 29.3329H34.6669V10.6669C34.6737 10.3124 34.6099 9.96004 34.4789 9.63052C34.348 9.30099 34.1527 9.00088 33.9044 8.74774C33.6561 8.49459 33.3598 8.2935 33.0329 8.15623C32.706 8.01895 32.355 7.94824 32.0004 7.94824C31.6458 7.94824 31.2948 8.01895 30.9679 8.15623C30.6409 8.2935 30.3446 8.49459 30.0964 8.74774C29.8481 9.00088 29.6528 9.30099 29.5218 9.63052C29.3909 9.96004 29.327 10.3124 29.3339 10.6669V29.3329H10.6669C10.3124 29.326 9.96004 29.3899 9.63052 29.5208C9.30099 29.6518 9.00088 29.8471 8.74774 30.0954C8.49459 30.3436 8.2935 30.6399 8.15623 30.9669C8.01895 31.2938 7.94824 31.6448 7.94824 31.9994C7.94824 32.354 8.01895 32.705 8.15623 33.0319C8.2935 33.3588 8.49459 33.6551 8.74774 33.9034C9.00088 34.1517 9.30099 34.347 9.63052 34.4779C9.96004 34.6089 10.3124 34.6727 10.6669 34.6659H29.3329V53.3329C29.3464 54.0311 29.6333 54.6962 30.1319 55.1853C30.6305 55.6743 31.301 55.9482 31.9994 55.9482C32.6978 55.9482 33.3683 55.6743 33.8669 55.1853C34.3655 54.6962 34.6524 54.0311 34.6659 53.3329V34.6669H53.3329C54.0311 34.6534 54.6962 34.3665 55.1853 33.8679C55.6743 33.3693 55.9482 32.6988 55.9482 32.0004C55.9482 31.302 55.6743 30.6315 55.1853 30.1329C54.6962 29.6343 54.0311 29.3474 53.3329 29.3339V29.3329Z" fill="#242841"/>
</svg>
