<svg width="64" height="64" viewBox="0 0 64 64" fill="none" xmlns="http://www.w3.org/2000/svg">
<path d="M26.9999 5L24.3329 7.667H13.6669C13.3124 7.66013 12.96 7.72403 12.6305 7.85495C12.301 7.98587 12.0009 8.18119 11.7477 8.42948C11.4946 8.67776 11.2935 8.97404 11.1562 9.30097C11.0189 9.6279 10.9482 9.97892 10.9482 10.3335C10.9482 10.6881 11.0189 11.0391 11.1562 11.366C11.2935 11.693 11.4946 11.9892 11.7477 12.2375C12.0009 12.4858 12.301 12.6811 12.6305 12.812C12.96 12.943 13.3124 13.0069 13.6669 13H50.9999C51.3544 13.0069 51.7067 12.943 52.0363 12.812C52.3658 12.6811 52.6659 12.4858 52.919 12.2375C53.1722 11.9892 53.3733 11.693 53.5105 11.366C53.6478 11.0391 53.7185 10.6881 53.7185 10.3335C53.7185 9.97892 53.6478 9.6279 53.5105 9.30097C53.3733 8.97404 53.1722 8.67776 52.919 8.42948C52.6659 8.18119 52.3658 7.98587 52.0363 7.85495C51.7067 7.72403 51.3544 7.66013 50.9999 7.667H40.3329L37.6669 5H26.9999ZM13.6669 18.333V53C13.6668 53.7004 13.8046 54.3939 14.0726 55.041C14.3405 55.6881 14.7333 56.2761 15.2286 56.7713C15.7238 57.2665 16.3118 57.6594 16.9589 57.9273C17.606 58.1953 18.2995 58.3331 18.9999 58.333H45.6669C46.3673 58.3331 47.0608 58.1953 47.7079 57.9273C48.355 57.6594 48.9429 57.2665 49.4382 56.7713C49.9334 56.2761 50.3262 55.6881 50.5942 55.041C50.8622 54.3939 51 53.7004 50.9999 53V18.333H13.6669Z" fill="#242841"/>
</svg>
