<svg width="24" height="24" viewBox="0 0 24 24" fill="none" xmlns="http://www.w3.org/2000/svg">
<path d="M21.7361 7.0152C21.6159 6.49831 21.3475 6.02771 20.9639 5.66108C20.5802 5.29446 20.0979 5.04775 19.5761 4.9512C17.0386 4.5283 14.4682 4.33552 11.8961 4.3752C9.30837 4.3361 6.72237 4.52887 4.16907 4.9512C3.64397 5.03993 3.15752 5.284 2.7725 5.65191C2.38748 6.01982 2.12156 6.49468 2.00907 7.0152C1.74624 8.6822 1.61783 10.3676 1.62507 12.0552C1.60536 13.7452 1.74971 15.4331 2.05607 17.0952C2.17682 17.6118 2.44537 18.0821 2.82894 18.4486C3.21251 18.8151 3.6945 19.062 4.21607 19.1592C6.77054 19.5774 9.35683 19.7701 11.9451 19.7352C14.5333 19.7701 17.1196 19.5774 19.6741 19.1592C20.1991 19.0702 20.6854 18.8261 21.0703 18.4582C21.4553 18.0903 21.7213 17.6156 21.8341 17.0952C22.1095 15.4282 22.2699 13.7442 22.3141 12.0552C22.2487 10.363 22.0555 8.67823 21.7361 7.0152V7.0152ZM9.30507 15.4152V8.6952L15.1611 12.0552L9.30507 15.4152Z" fill="#FF0000"/>
</svg>
