<svg id="Group_1" data-name="Group 1" xmlns="http://www.w3.org/2000/svg" width="48" height="48" viewBox="0 0 48 48">
<defs xmlns="http://www.w3.org/2000/svg"><style>svg:not(:target) > g:not(:target) > *, svg:not(:target) > *:not(g:nth-child(2):last-child) { display: none }:target { display: inline !important } </style></defs>
  <rect id="Rectangle_11006" data-name="Rectangle 11006" width="48" height="48" fill="none"/>
  <g id="Group_17" data-name="Group 17" transform="translate(10 6)">
    <path id="Path_334" data-name="Path 334" d="M23.919,2h4.175a6.414,6.414,0,0,0-6.263,6.545V31.454A6.414,6.414,0,0,0,28.094,38H23.919a6.414,6.414,0,0,1-6.262-6.546V8.545A6.414,6.414,0,0,1,23.919,2Z" transform="translate(-17.594 -2)" fill="rgba(0,0,0,0.3)"/>
    <path id="Subtraction_2" data-name="Subtraction 2" d="M-624.5-427H-639a5.006,5.006,0,0,1-5-5v-28a5.006,5.006,0,0,1,5-5h14.5a5.006,5.006,0,0,1,5,5v4.649c-.327-.032-.663-.049-1-.049s-.67.017-1,.049V-460a3,3,0,0,0-3-3H-639a3,3,0,0,0-3,3v28a3,3,0,0,0,3,3h14.5a3,3,0,0,0,3-3v-3.45c.327.033.664.049,1,.049s.669-.017,1-.049V-432A5.006,5.006,0,0,1-624.5-427Z" transform="translate(643 464)"/>
    <line id="Line_1" data-name="Line 1" x2="6" transform="translate(8.25 5)" fill="none" stroke="#000" stroke-linecap="round" stroke-linejoin="round" stroke-width="2"/>
    <line id="Line_2" data-name="Line 2" y2="0.03" transform="translate(11.25 30)" fill="none" stroke="#000" stroke-linecap="round" stroke-linejoin="round" stroke-width="2"/>
    <g id="Group_17953" data-name="Group 17953" transform="translate(2.5 9.602)">
      <path id="Subtraction_1" data-name="Subtraction 1" d="M-646-454.6a10.011,10.011,0,0,1-10-10,10.012,10.012,0,0,1,10-10,10.012,10.012,0,0,1,10,10A10.011,10.011,0,0,1-646-454.6Zm.151-4.24h.033a.753.753,0,0,0,.476-.169.545.545,0,0,0,.193-.435v-.731a3.9,3.9,0,0,0,2.057-.8,1.975,1.975,0,0,0,.763-1.564,1.64,1.64,0,0,0-.444-1.2,2.824,2.824,0,0,0-1.08-.666,13.569,13.569,0,0,0-1.637-.429c-.5-.106-.9-.2-1.2-.29a1.988,1.988,0,0,1-.729-.365.767.767,0,0,1-.289-.62.984.984,0,0,1,.509-.875,2.551,2.551,0,0,1,1.241-.322l.121,0h.076a3.751,3.751,0,0,1,1.114.169,5.567,5.567,0,0,1,1.066.5,1.72,1.72,0,0,0,.31.139.841.841,0,0,0,.241.035.538.538,0,0,0,.406-.185.615.615,0,0,0,.172-.427.625.625,0,0,0-.33-.545,5.107,5.107,0,0,0-2.394-.846v-.718a.545.545,0,0,0-.193-.435.75.75,0,0,0-.473-.169h-.072a.745.745,0,0,0-.472.169.546.546,0,0,0-.194.435v.73a3.975,3.975,0,0,0-2.09.817,2.018,2.018,0,0,0-.8,1.6,1.688,1.688,0,0,0,.469,1.255,2.952,2.952,0,0,0,1.114.689,14.456,14.456,0,0,0,1.678.446c.479.1.868.2,1.155.284a2.114,2.114,0,0,1,.688.33.653.653,0,0,1,.275.544.956.956,0,0,1-.5.869,2.8,2.8,0,0,1-1.266.3c-.052,0-.105,0-.157,0h-.021a5,5,0,0,1-1.265-.162,5.543,5.543,0,0,1-1.245-.509,3.027,3.027,0,0,0-.31-.133.765.765,0,0,0-.247-.041h-.008a.528.528,0,0,0-.392.185.61.61,0,0,0-.172.428.65.65,0,0,0,.069.313.629.629,0,0,0,.247.236,4.682,4.682,0,0,0,1.279.58,7.288,7.288,0,0,0,1.527.278v.707a.549.549,0,0,0,.192.429.753.753,0,0,0,.476.169Z" transform="translate(666 473.602)" fill="rgba(0,0,0,0.7)"/>
    </g>
  </g>
</svg>
