
<svg cache-id="4d6fda2280234d81a7aa5fc05de9e224" id="eGsJoIK1m4w1" xmlns="http://www.w3.org/2000/svg" xmlns:xlink="http://www.w3.org/1999/xlink" viewBox="0 0 169.999000 169.999000" shape-rendering="geometricPrecision" text-rendering="geometricPrecision"><style><![CDATA[#eGsJoIK1m4w4_tr {animation: eGsJoIK1m4w4_tr__tr 1500ms linear infinite normal forwards}@keyframes eGsJoIK1m4w4_tr__tr { 0% {transform: translate(188px,213.000007px) rotate(0deg)} 100% {transform: translate(188px,213.000007px) rotate(359.810093deg)}} #eGsJoIK1m4w4 {animation: eGsJoIK1m4w4__tt 1500ms linear infinite normal forwards}@keyframes eGsJoIK1m4w4__tt { 0% {transform: translate(9212px,876px)} 46.666667% {transform: translate(9212px,876px)} 100% {transform: translate(9212px,876px)}} #eGsJoIK1m4w5_tr {animation: eGsJoIK1m4w5_tr__tr 1500ms linear infinite normal forwards}@keyframes eGsJoIK1m4w5_tr__tr { 0% {transform: translate(188.000004px,213.000004px) rotate(0deg)} 100% {transform: translate(188.000004px,213.000004px) rotate(360deg)}} #eGsJoIK1m4w8_tr {animation: eGsJoIK1m4w8_tr__tr 1500ms linear infinite normal forwards}@keyframes eGsJoIK1m4w8_tr__tr { 0% {transform: translate(188.000008px,213.000008px) rotate(0deg)} 100% {transform: translate(188.000008px,213.000008px) rotate(360deg)}}]]></style><defs><filter id="eGsJoIK1m4w11-filter" x="-400%" width="600%" y="-400%" height="600%"><feGaussianBlur id="eGsJoIK1m4w11-filter-drop-shadow-0-blur" in="SourceAlpha" stdDeviation="4,4"/><feOffset id="eGsJoIK1m4w11-filter-drop-shadow-0-offset" dx="0" dy="4" result="tmp"/><feFlood id="eGsJoIK1m4w11-filter-drop-shadow-0-flood" flood-color="rgba(0,79,172,0.6)"/><feComposite id="eGsJoIK1m4w11-filter-drop-shadow-0-composite" operator="in" in2="tmp"/><feMerge id="eGsJoIK1m4w11-filter-drop-shadow-0-merge"><feMergeNode id="eGsJoIK1m4w11-filter-drop-shadow-0-merge-node-1"/><feMergeNode id="eGsJoIK1m4w11-filter-drop-shadow-0-merge-node-2" in="SourceGraphic"/></feMerge></filter></defs><g id="eGsJoIK1m4w2" transform="matrix(1 0 0 1 -172 -525)"><g id="eGsJoIK1m4w3" transform="matrix(1 0 0 1 69 396.99900000000002)"><g id="eGsJoIK1m4w4_tr" transform="translate(188,213.000007) rotate(0)"><path id="eGsJoIK1m4w4" d="M-9212,-791C-9223.365455,-790.977895,-9234.618459,-793.249924,-9245.085000,-797.680000C-9250.139670,-799.820169,-9254.975233,-802.444749,-9259.524000,-805.517000C-9264.036423,-808.570500,-9268.247472,-812.047228,-9272.100000,-815.900000C-9275.952303,-819.753318,-9279.427751,-823.965780,-9282.479000,-828.480000C-9285.551629,-833.028185,-9288.176231,-837.863455,-9290.316000,-842.918000C-9294.747105,-853.383310,-9297.020491,-864.635275,-9297,-876L-9212,-876L-9212,-961C-9200.634211,-961.022212,-9189.380859,-958.750182,-9178.914000,-954.320000C-9173.859279,-952.179939,-9169.023705,-949.555353,-9164.475000,-946.483000C-9159.962823,-943.429584,-9155.752097,-939.952848,-9151.900000,-936.100000C-9148.048229,-932.246198,-9144.572825,-928.033789,-9141.521000,-923.520000C-9138.449189,-918.971488,-9135.824948,-914.136267,-9133.685000,-909.082000C-9129.253525,-898.616770,-9126.979798,-887.364797,-9127,-876C-9126.977678,-864.634200,-9129.249713,-853.380827,-9133.680000,-842.914000C-9135.819948,-837.859733,-9138.444189,-833.024512,-9141.516000,-828.476000C-9144.569641,-823.963402,-9148.046718,-819.752335,-9151.900000,-815.900000C-9155.753757,-812.048180,-9159.966171,-808.572771,-9164.480000,-805.521000C-9169.028627,-802.448518,-9173.864213,-799.823926,-9178.919000,-797.684000C-9189.384057,-793.253211,-9200.635630,-790.979836,-9212,-791Z" transform="translate(9212,876)" fill="rgba(87,164,255,0.2)" stroke="none" stroke-width="1"/></g><g id="eGsJoIK1m4w5_tr" transform="translate(188.000004,213.000004) rotate(0)"><g id="eGsJoIK1m4w5" transform="translate(-45.000004,-45.000004)"><circle id="eGsJoIK1m4w6" r="45" transform="matrix(1 0 0 1 45 45)" fill="none" stroke="none" stroke-width="0.500000" stroke-dasharray="1,2"/><circle id="eGsJoIK1m4w7" r="44.750000" transform="matrix(1 0 0 1 45 45)" fill="none" stroke="rgb(0,79,172)" stroke-width="0.500000" stroke-dasharray="1,2"/></g></g><g id="eGsJoIK1m4w8_tr" transform="translate(188.000008,213.000008) rotate(0)"><g id="eGsJoIK1m4w8" transform="translate(-80.000008,-80.000008)"><circle id="eGsJoIK1m4w9" r="80" transform="matrix(1 0 0 1 80 80)" fill="none" stroke="none" stroke-width="0.500000" stroke-dasharray="1,2"/><circle id="eGsJoIK1m4w10" r="79.750000" transform="matrix(1 0 0 1 80 80)" fill="none" stroke="rgb(87,164,255)" stroke-width="0.500000" stroke-dasharray="1,2"/></g></g></g><g id="eGsJoIK1m4w11" transform="matrix(1 0 0 1 69 408)" filter="url(#eGsJoIK1m4w11-filter)"><g id="eGsJoIK1m4w12" transform="matrix(1 0 0 1 103 117)"><circle id="eGsJoIK1m4w13" r="16" transform="matrix(1 0 0 1 85 85)" fill="rgb(87,164,255)" stroke="none" stroke-width="1"/></g><circle id="eGsJoIK1m4w14" r="8" transform="matrix(1 0 0 1 188 202)" fill="rgb(0,79,172)" stroke="none" stroke-width="1"/></g></g></svg>