<svg xmlns="http://www.w3.org/2000/svg" width="48" height="48" viewBox="0 0 48 48">
<defs xmlns="http://www.w3.org/2000/svg"><style>svg:not(:target) > g:not(:target) > *, svg:not(:target) > *:not(g:nth-child(2):last-child) { display: none }:target { display: inline !important } </style></defs><defs><style>.a{fill:#e4f4ff;opacity:0;}.b{fill:none;stroke:#e7381d;stroke-width:2px;}.c{fill:#e7381d;}</style></defs><g transform="translate(-13.312 -114.115)"><circle class="a" cx="24" cy="24" r="24" transform="translate(13.312 114.115)"/></g><circle class="b" cx="20" cy="20" r="20" transform="translate(4 4)"/><path class="c" d="M113.313,142.748a1,1,0,0,1-.693-1.722l10-9.6A1,1,0,1,1,124,132.868l-10,9.6A1,1,0,0,1,113.313,142.748Z" transform="translate(-94.313 -112.115)"/><path class="c" d="M123.313,142.748a1,1,0,0,1-.693-.279l-10-9.6A1,1,0,1,1,114,131.426l10,9.6a1,1,0,0,1-.692,1.722Z" transform="translate(-94.313 -112.115)"/></svg>